<svg width="384" height="109" viewBox="0 0 384 109" fill="none" xmlns="http://www.w3.org/2000/svg">
<path d="M248.263 39.2204C251.575 38.7661 256.564 39.056 259.847 39.7081C260.43 39.9579 261.425 40.3161 262 40.5C265.5 40 266 40.5 268.5 41.5C268.59 42.0089 269.076 43.3214 269.275 43.7284C269.68 45.1916 269.702 63.4355 269.432 65.513C269.099 66.2181 269.262 67.3327 269.442 68.0719C269.511 69.4385 269.657 73.0082 269.535 74.307C269.221 77.6733 270.275 88.368 268.869 90.8538C269.275 92.7934 266.104 96.3613 264.766 97.4768C261.468 100.225 257.405 99.6375 253.39 99.6167L243.315 99.6038C240.117 99.6008 231.941 99.818 229.316 99.4841C229.179 98.1761 228.863 94.0562 229.631 93.0831C232.027 91.7781 253.368 92.9301 258.54 92.3274C262.895 89.7069 262.013 84.5702 262.018 80.164C260.75 80.4814 257.809 81.3433 256.655 81.3484C248.556 81.3834 240.231 81.3991 232.162 81.5105C226.733 81.425 221.481 77.1155 221.166 71.5861C221.123 67.1924 220.921 62.5734 221.072 58.1868C221.254 53.026 219.963 47.2499 223.732 43.1465C226.255 40.4009 229.644 39.3764 233.182 39.1303C234.767 39.1082 243.837 38.859 244.718 39.1809C245.9 39.2354 247.081 39.2485 248.263 39.2204ZM228.659 70.4025L228.923 71.1561C229.736 72.8862 230.985 74.0946 233.016 74.163C236.822 74.2911 240.694 74.254 244.502 74.2246C248.91 74.1399 253.437 74.5282 257.813 73.9583C260.036 73.6689 261.782 71.3462 261.921 69.1881C262.219 64.5687 262.118 59.7768 262.125 55.176C262.069 48.5525 260.138 46.085 253.415 46.2871C246.568 46.4704 239.424 45.8582 232.637 46.5824C230.483 46.8122 228.558 49.9254 228.481 51.9781C228.282 57.1378 228.282 62.3522 228.361 67.5185C228.376 68.4461 228.44 69.5108 228.659 70.4025Z" fill="#141414"/>
<path d="M126.717 38.1208C130.143 37.8698 134.398 38.1011 137.91 38.0197C139.194 37.9897 144.08 37.9721 145.135 38.1521C146.161 38.1854 147.029 38.2122 148.061 38.1613C149.005 38.0422 152.68 37.9213 153.538 38.1339C156.593 38.21 159.492 39.4959 161.599 41.709C162.925 43.1095 163.601 44.1003 164.035 46.0147C164.469 47.9304 164.425 49.5351 164.404 51.4868C164.336 57.644 164.38 63.7609 164.403 69.9226C164.415 73.0036 163.308 75.4458 161.088 77.6213C157.546 80.9689 153.249 80.2032 149.006 80.5145C148.137 80.4656 147.186 80.475 146.311 80.4851C140.183 80.5559 133.962 80.339 127.845 80.5591C124.425 80.5164 121.652 80.1416 118.942 77.8298C116.693 75.924 115.135 73.0476 115.071 70.0657C114.944 64.0973 115.036 58.1114 115.011 52.1402C115.004 50.5013 114.931 48.5623 115.283 46.9644C116.495 41.4562 121.379 38.462 126.717 38.1208ZM134.11 73.2136C138.022 73.166 141.935 73.1647 145.848 73.2093C148.033 73.2192 150.277 73.3166 152.473 73.0478C154.306 72.8234 156.006 71.807 156.724 70.01C157.423 68.2612 157.07 65.7433 157.188 63.8697C157.209 59.5923 157.221 55.3128 157.214 51.0354C157.211 49.4695 156.394 48.0597 155.32 46.9743C153.114 44.7445 148.754 45.1384 145.786 45.2189L145.708 45.2212C141.983 45.2607 138.258 45.2611 134.534 45.2229C132.185 45.2127 129.019 44.9835 126.788 45.521C123.812 46.2381 122.687 48.7 122.613 51.4958C122.477 56.5785 122.538 61.5258 122.469 66.6009C122.432 72.8701 126.477 73.6042 131.678 73.3791C132.501 73.3435 133.287 73.349 134.11 73.2136Z" fill="#141414"/>
<path d="M293.828 40.1281C294.545 40.0069 298.08 40.0144 299.003 40.0288C301.828 40.0728 305.016 39.9311 307.807 40.097C308.991 40.2577 309.63 40.2978 310.825 40.1339C312.359 39.961 318.131 39.9138 319.432 40.2483C324.213 41.0315 328.128 42.5 329.327 48.2525C330.072 51.8239 329.506 56.3305 329.508 59.9867C329.032 64.7132 324.754 65.2389 321.171 65.2917C314.109 65.2501 307.045 65.2477 299.983 65.2844C296.898 65.2908 292.181 65.4342 289.246 65.2412C289.252 67.0292 289.218 69.3346 289.458 71.0693C289.729 76.8669 300.086 75.2094 304.022 75.195C310.271 75.1257 316.52 75.1856 322.765 75.3748C323.688 75.3935 326.401 75.3049 327.038 75.4991C328.135 75.834 327.753 81.3739 327.712 82.1944C324.837 82.6375 322.808 82.3109 320.451 82.5609C316.752 82.466 312.088 82.4293 308.401 82.5529C305.191 82.3648 301.654 82.4942 298.408 82.4431C293.642 82.3678 289.581 83.1938 285.685 79.5638C283.012 77.0746 282.173 75.1375 282.038 71.466C282.07 66.0916 282.049 60.6808 282.015 55.3083C281.987 51.0597 281.74 47.0975 284.913 43.7811C287.272 41.3168 290.499 40.25 293.828 40.1281ZM316.853 58.1573C318.162 57.9883 320.152 58.0211 321.53 58.0088C322.652 55.7035 322.252 51.2079 321.116 48.9524C318.338 46.8333 315.722 47.2018 312.38 47.2344C306.373 47.2931 300.313 47.0614 294.322 47.4219C292.99 47.5084 290.939 48.7329 290.22 49.7965C288.83 51.8546 289.214 55.8003 289.233 58.2406C298.556 57.8661 307.47 58.7034 316.853 58.1573Z" fill="#141414"/>
<path d="M314.807 40.097C315.991 40.2577 316.63 40.2978 317.825 40.1339C317.988 40.5512 318.039 40.6467 318.061 41.0948C316.896 41.0493 315.444 41.1304 314.26 41.1647C314.341 40.8439 314.629 40.3985 314.807 40.097Z" fill="#222022"/>
<path d="M82.2957 9.78804C84.9676 9.60032 89.352 9.77556 92.1329 9.79332L107.967 9.82351C110.695 9.84297 113.418 9.80527 116.129 9.73406C117.551 9.69672 118.021 12.1089 117.777 13.2099C117.015 16.6453 112.606 19.1776 109.478 20.2055C107.684 20.7641 104.658 20.6302 102.715 20.6261L93.6026 20.5993C86.2213 20.5757 79.7615 20.136 74.6715 26.5033C72.7728 28.8784 72.0044 30.5084 71.5311 33.5302C74.5254 33.7303 80.0029 33.5445 83.1636 33.5349H104.642C108.603 35.6623 107.865 38.4384 107.617 42.3508C106.249 44.1772 105.609 44.013 103.487 44.0914C97.5532 44.0231 91.6195 43.9916 85.6858 43.9972C83.5805 43.9995 78.8155 43.8954 76.9056 44.2677C75.6603 44.5027 74.4963 45.0541 73.5254 45.8686C72.7642 46.5059 71.7729 47.7396 71.5541 48.6833C70.6224 52.7015 71.4014 57.5719 71.0506 61.7427C70.622 62.4257 70.5196 63.3479 70 64C67.3152 67.3713 59.464 65.8274 58.5952 61.4753C58.0656 58.8227 58.3704 54.8234 58.4041 51.9917C58.4144 49.3851 58.3648 46.7784 58.255 44.174C57.5595 44.0924 56.3412 44.0214 55.727 43.8392C52.1368 42.7737 52.8205 38.8132 54.7308 36.4878C55.9152 35.0463 56.9003 34.4751 58.4345 33.5692C59.3422 28.6728 61.4125 24.0658 64.4708 20.1352C68.2854 15.2471 76.1627 10.5378 82.2957 9.78804Z" fill="#141414"/>
<path d="M35.4318 36.6433C35.3167 35.6912 35.2249 35.3132 34.5123 34.606C33.9715 34.0783 33.2988 33.7063 32.5647 33.5295C29.7948 32.8897 23.4512 33.5924 20.2973 33.3847C16.9279 33.1628 13.4124 33.4535 10.546 30.9695C9.51858 30.0791 9.38044 27.9329 10.3876 27.0316C12.9687 24.6685 16.1172 23.0443 19.031 21.1428L27.9981 15.3572C33.1468 12.0232 40.7617 6.23716 46.8164 12C49.1072 14.1804 48.5484 18.6233 48.4895 21.6449L48.4822 59.7242L48.5 71.7449C48.5105 74.191 48.5804 76.6171 48.4312 79.061C48.271 81.6871 48.5 82.3734 47.0035 82.3734C44.9126 82.5172 42.2622 82.8479 40.1938 82.8734C37.4473 82.9073 35.5559 82.9837 35.4794 79.6183C35.3742 74.9997 35.4486 70.3638 35.4495 65.7448L35.4318 36.6433Z" fill="#7D63F8"/>
<path d="M205.653 39.2283C207.116 39.0136 212.612 38.8121 213.854 39.3345C214.116 39.6367 214.131 39.686 214.221 40.0724C214.277 41.866 214.628 44.4517 213.843 45.9363C213.504 46.2429 213.048 46.1972 212.582 46.211C211.288 46.2108 209.991 46.22 208.697 46.2389C202.261 46.3105 195.823 46.3174 189.386 46.2597L187.665 46.6403C185.338 47.7863 184.681 48.3566 183.587 50.8428C183.726 53.3799 183.993 56.3218 183.823 58.8393C183.632 61.6772 183.551 64.3312 183.548 67.1731L183.489 75.8665C183.484 77.6781 183.836 79.4538 182.958 81.0468C181.809 81.6223 177.851 81.6047 176.624 81.1053C176.12 80.5595 176.098 79.5058 176.104 78.7314C176.195 68.707 175.665 58.301 176.381 48.3339C176.74 43.3191 182.326 39.3249 187.283 39.1689C190.491 39.0361 193.848 39.0678 197.066 39.0569C198.52 39.052 201.796 38.9871 203.1 39.233L205.653 39.2283Z" fill="#141414"/>
<path d="M182.958 81.0468C183.137 79.1058 183.027 75.6438 183.017 73.5976L182.952 60.5146C182.943 57.9635 182.686 53.0776 183.587 50.8428C183.726 53.3799 183.993 56.3218 183.823 58.8393C183.632 61.6772 183.551 64.3312 183.548 67.1731L183.489 75.8665C183.484 77.6781 183.836 79.4538 182.958 81.0468Z" fill="#484749"/>
<path d="M63.5897 69.1933C67.1885 68.5623 70.6235 70.9481 71.2881 74.5401C71.9525 78.1322 69.5981 81.5888 66.0119 82.2864C62.7883 82.9134 59.5887 81.0971 58.4753 78.008C57.3621 74.9191 58.6673 71.4798 61.5502 69.9068C62.1867 69.5596 62.8754 69.3186 63.5897 69.1933Z" fill="#7D63F8"/>
</svg>
